<svg xmlns="http://www.w3.org/2000/svg" version="1.1" xmlns:xlink="http://www.w3.org/1999/xlink" xmlns:svgjs="http://svgjs.dev/svgjs" width="1000" height="625" viewBox="0 0 1000 625"><g transform="matrix(1,0,0,1,0,0)"><svg viewBox="0 0 512 320" data-background-color="#051726" preserveAspectRatio="xMidYMid meet" height="625" width="1000" xmlns="http://www.w3.org/2000/svg" xmlns:xlink="http://www.w3.org/1999/xlink"><g id="tight-bounds" transform="matrix(1,0,0,1,0,0)"><svg viewBox="0 0 512 320" height="320" width="512"><g><svg></svg></g><g><svg viewBox="0 0 512 320" height="320" width="512"><g><path xmlns="http://www.w3.org/2000/svg" d="M96 160c0-88.366 71.634-160 160-160 88.366 0 160 71.634 160 160 0 88.366-71.634 160-160 160-88.366 0-160-71.634-160-160z" fill="#ffffff" fill-rule="nonzero" stroke="none" stroke-width="1" stroke-linecap="butt" stroke-linejoin="miter" stroke-miterlimit="10" stroke-dasharray="" stroke-dashoffset="0" font-family="none" font-weight="none" font-size="none" text-anchor="none" style="mix-blend-mode: normal" data-fill-palette-color="tertiary"></path></g><g transform="matrix(1,0,0,1,181,80)"><svg viewBox="0 0 150 160" height="160" width="150"><g><svg viewBox="0 0 150 160" height="160" width="150"><g><svg viewBox="0 0 150 160" height="160" width="150"><g id="textblocktransform"><svg viewBox="0 0 150 160" height="160" width="150" id="textblock"><g><svg viewBox="0 0 150 160" height="160" width="150"><g transform="matrix(1,0,0,1,0,0)"><svg width="150" viewBox="0.17000001668930054 -35.54999923706055 33.33000183105469 35.54999923706055" height="160" data-palette-color="#051726"><path d="M25.71 0L23.24-7.32 10.4-7.32 7.96 0 0.17 0 13.4-35.55 20.19-35.55 33.5 0 25.71 0ZM16.8-26.56L12.38-13.26 21.26-13.26 16.8-26.56Z" opacity="1" transform="matrix(1,0,0,1,0,0)" fill="#051726" class="wordmark-text-0" data-fill-palette-color="quaternary" id="text-0"></path></svg></g></svg></g></svg></g></svg></g></svg></g></svg></g></svg></g><defs></defs></svg><rect width="512" height="320" fill="none" stroke="none" visibility="hidden"></rect></g></svg></g></svg>